<?xml version="1.0" standalone="no"?>
<!DOCTYPE svg PUBLIC "-//W3C//DTD SVG 20010904//EN"
 "http://www.w3.org/TR/2001/REC-SVG-20010904/DTD/svg10.dtd">
<svg version="1.0" xmlns="http://www.w3.org/2000/svg"
 width="512.000000pt" height="512.000000pt" viewBox="0 0 512.000000 512.000000"
 preserveAspectRatio="xMidYMid meet">
<metadata>
Created by potrace 1.16, written by Peter Selinger 2001-2019
</metadata>
<g transform="translate(0.000000,512.000000) scale(0.100000,-0.100000)"
fill="#000000" stroke="none">
<path d="M187 4932 c-147 -147 -188 -194 -185 -211 2 -18 40 15 213 189 175
175 206 210 185 210 -19 0 -69 -44 -213 -188z"/>
<path d="M287 4832 c-227 -227 -288 -294 -285 -311 2 -17 59 35 313 289 255
255 305 310 285 310 -20 0 -89 -64 -313 -288z"/>
<path d="M387 4732 c-307 -307 -388 -393 -385 -411 2 -17 79 55 413 389 335
335 405 410 385 410 -20 0 -109 -84 -413 -388z"/>
<path d="M487 4632 c-388 -388 -488 -493 -485 -511 2 -17 99 74 513 489 415
415 505 510 485 510 -20 0 -129 -104 -513 -488z"/>
<path d="M587 4532 c-468 -468 -588 -593 -585 -611 2 -17 118 94 613 589 495
495 605 610 585 610 -20 0 -149 -124 -613 -588z"/>
<path d="M687 4432 c-548 -548 -688 -693 -685 -711 2 -17 138 114 713 689 575
575 705 710 685 710 -20 0 -169 -144 -713 -688z"/>
<path d="M787 4332 c-629 -629 -788 -793 -785 -811 2 -17 158 133 813 789 655
655 805 810 785 810 -20 0 -189 -164 -813 -788z"/>
<path d="M887 4232 c-709 -709 -888 -893 -885 -911 2 -17 177 153 913 889 735
735 905 910 885 910 -20 0 -209 -184 -913 -888z"/>
<path d="M987 4132 c-789 -789 -988 -993 -985 -1011 2 -17 197 173 1013 989
815 815 1005 1010 985 1010 -20 0 -229 -204 -1013 -988z"/>
<path d="M1090 4035 c-854 -853 -1086 -1090 -1088 -1112 -3 -23 54 29 317 292
282 281 321 316 321 292 0 -15 7 -42 16 -59 l16 -31 -336 -336 c-261 -261
-336 -342 -336 -361 0 -20 64 39 350 325 l350 350 35 -40 34 -40 -385 -385
c-300 -300 -384 -391 -384 -410 0 -20 74 49 398 373 l399 399 33 -42 33 -42
-431 -431 c-338 -338 -432 -437 -432 -457 0 -20 83 58 446 420 l445 445 35
-40 35 -39 -481 -481 c-376 -377 -480 -485 -480 -505 0 -20 93 68 493 468
l494 494 31 -37 c18 -19 32 -39 32 -43 0 -4 -236 -243 -525 -532 -413 -413
-525 -530 -525 -550 0 -20 101 76 540 515 l541 540 36 -39 36 -38 -577 -577
c-453 -453 -576 -581 -576 -601 0 -20 112 87 588 563 l588 588 32 -34 c18 -18
32 -37 32 -43 0 -5 -279 -288 -620 -629 -489 -489 -620 -625 -620 -645 0 -20
120 95 635 610 l635 635 37 -38 38 -37 -673 -673 c-530 -530 -672 -677 -672
-697 0 -20 131 106 683 658 l683 682 37 -37 37 -38 -720 -720 c-569 -569 -720
-725 -720 -745 0 -20 139 114 730 705 l730 730 37 -38 38 -37 -768 -768 c-606
-606 -767 -772 -767 -792 0 -20 150 125 778 753 l777 777 38 -37 37 -38 -815
-815 c-645 -645 -815 -820 -815 -840 0 -20 158 133 825 800 l825 825 37 -38
38 -37 -863 -863 c-682 -682 -862 -867 -862 -887 0 -20 169 144 873 848 l872
872 38 -37 37 -38 -910 -910 c-721 -721 -910 -915 -910 -935 0 -20 177 152
923 896 l922 921 34 -39 35 -39 -957 -957 c-758 -758 -957 -962 -957 -982 0
-20 188 163 970 945 l969 969 35 -39 35 -40 -977 -977 c-788 -789 -972 -978
-952 -978 20 0 226 201 990 965 l966 966 33 -42 34 -41 -924 -924 c-745 -745
-919 -924 -899 -924 20 0 215 190 938 913 l912 912 35 -40 34 -40 -872 -872
c-704 -705 -867 -873 -847 -873 20 0 205 180 886 861 l861 861 33 -42 33 -42
-819 -819 c-661 -661 -814 -819 -794 -819 20 0 194 169 833 808 l808 807 34
-40 35 -40 -768 -767 c-620 -621 -762 -768 -742 -768 20 0 183 158 779 754
l755 755 33 -30 c19 -16 39 -29 46 -29 6 0 -314 -326 -713 -725 -587 -587
-720 -725 -700 -725 20 0 176 151 745 720 663 663 723 720 753 720 18 0 46 7
62 15 15 8 251 259 523 557 427 468 596 644 1226 1273 578 577 731 735 731
755 0 20 -87 -62 -471 -445 -339 -338 -433 -427 -333 -317 76 85 144 164 151
175 7 12 12 45 13 72 l0 50 320 320 c249 249 320 325 320 345 0 20 -59 -34
-328 -303 -300 -300 -330 -327 -343 -311 -8 9 -26 25 -41 34 l-27 16 370 370
c288 288 369 374 369 394 0 20 -72 -47 -393 -368 -322 -322 -397 -392 -419
-392 -15 0 -38 -5 -52 -11 -14 -7 -237 -242 -495 -523 -292 -318 -614 -655
-853 -893 l-383 -382 -34 40 -34 41 1332 1332 c1057 1057 1331 1336 1331 1356
0 20 -263 -238 -1345 -1320 l-1345 -1345 -35 40 -34 40 1380 1380 c1095 1096
1379 1385 1379 1405 0 20 -273 -248 -1393 -1368 l-1394 -1394 -31 38 c-18 21
-32 41 -32 44 0 3 641 646 1425 1430 1133 1133 1425 1430 1425 1450 0 20 -281
-256 -1440 -1415 l-1441 -1440 -36 39 -36 38 1429 1429 c1150 1150 1424 1429
1404 1429 -20 0 -315 -290 -1440 -1415 l-1415 -1415 -38 37 -37 38 1377 1377
c1108 1108 1373 1378 1353 1378 -20 0 -305 -280 -1387 -1362 l-1363 -1363 -37
38 -38 37 1325 1325 c1067 1067 1320 1325 1300 1325 -20 0 -294 -269 -1335
-1310 l-1310 -1310 -38 37 -37 38 1272 1272 c1025 1025 1268 1273 1248 1273
-20 0 -283 -258 -1284 -1259 l-1258 -1258 -36 39 -36 39 1220 1220 c981 981
1214 1219 1194 1219 -20 0 -274 -249 -1232 -1207 l-1207 -1207 -35 39 -35 40
1167 1168 c940 940 1162 1167 1142 1167 -20 0 -263 -238 -1180 -1155 -912
-912 -1157 -1152 -1167 -1143 -8 6 -23 24 -35 41 l-21 29 1114 1114 c897 897
1109 1114 1089 1114 -20 0 -253 -228 -1128 -1102 l-1103 -1103 -36 39 -36 38
1064 1064 c858 858 1059 1064 1039 1064 -20 0 -242 -217 -1075 -1050 l-1050
-1050 -38 37 -37 38 1012 1012 c816 816 1008 1013 988 1013 -20 0 -232 -207
-1022 -997 l-998 -998 -37 38 -38 37 960 960 c775 775 955 960 935 960 -20 0
-221 -196 -970 -945 l-945 -945 -38 37 -37 38 907 907 c733 733 903 908 883
908 -20 0 -210 -185 -919 -894 l-893 -893 -36 39 -36 39 855 855 c689 689 849
854 829 854 -20 0 -201 -176 -867 -842 l-842 -842 -35 39 -35 40 802 803 c648
648 797 802 777 802 -20 0 -191 -166 -816 -791 l-791 -791 -33 42 -33 42 749
749 c605 605 744 749 724 749 -20 0 -180 -155 -761 -736 l-736 -736 -31 16
c-17 9 -44 16 -59 16 -24 0 69 97 692 720 582 582 715 720 695 720 -20 0 -249
-224 -1110 -1085z"/>
<path d="M3185 1930 c-1551 -1551 -1925 -1930 -1905 -1930 37 0 3843 3807
3838 3839 -2 17 -378 -354 -1933 -1909z"/>
<path d="M3285 1830 c-1471 -1471 -1825 -1830 -1805 -1830 37 0 3643 3607
3638 3639 -2 17 -359 -334 -1833 -1809z"/>
<path d="M3385 1730 c-1391 -1391 -1725 -1730 -1705 -1730 37 0 3443 3407
3438 3439 -2 17 -339 -315 -1733 -1709z"/>
<path d="M3485 1630 c-1311 -1311 -1625 -1630 -1605 -1630 37 0 3243 3207
3238 3239 -2 17 -319 -295 -1633 -1609z"/>
<path d="M3585 1530 c-1231 -1231 -1525 -1530 -1505 -1530 37 0 3043 3007
3038 3039 -2 17 -300 -275 -1533 -1509z"/>
<path d="M3685 1430 c-1151 -1151 -1425 -1430 -1405 -1430 37 0 2843 2807
2838 2839 -2 17 -280 -256 -1433 -1409z"/>
<path d="M3785 1330 c-1071 -1071 -1325 -1330 -1305 -1330 37 0 2643 2607
2638 2639 -2 17 -260 -236 -1333 -1309z"/>
<path d="M3885 1230 c-991 -991 -1225 -1230 -1205 -1230 37 0 2443 2407 2438
2439 -2 17 -240 -216 -1233 -1209z"/>
<path d="M3985 1130 c-911 -911 -1125 -1130 -1105 -1130 37 0 2243 2207 2238
2239 -2 17 -221 -196 -1133 -1109z"/>
<path d="M4085 1030 c-831 -831 -1025 -1030 -1005 -1030 37 0 2043 2007 2038
2039 -2 17 -201 -177 -1033 -1009z"/>
<path d="M4185 930 c-751 -751 -925 -930 -905 -930 37 0 1843 1807 1838 1839
-2 17 -181 -157 -933 -909z"/>
<path d="M4285 830 c-671 -671 -825 -830 -805 -830 37 0 1643 1607 1638 1639
-2 17 -162 -137 -833 -809z"/>
<path d="M4385 730 c-591 -591 -725 -730 -705 -730 37 0 1443 1407 1438 1439
-2 17 -142 -118 -733 -709z"/>
<path d="M4485 630 c-511 -511 -625 -630 -605 -630 37 0 1243 1207 1238 1239
-2 17 -122 -98 -633 -609z"/>
<path d="M4585 530 c-431 -431 -525 -530 -505 -530 37 0 1043 1007 1038 1039
-2 17 -103 -78 -533 -509z"/>
<path d="M4685 430 c-351 -351 -425 -430 -405 -430 37 0 843 807 838 839 -2
17 -83 -59 -433 -409z"/>
<path d="M4785 330 c-271 -271 -325 -330 -305 -330 37 0 643 607 638 639 -2
17 -63 -39 -333 -309z"/>
<path d="M4885 230 c-191 -191 -226 -230 -205 -230 37 0 443 407 438 439 -2
18 -44 -19 -233 -209z"/>
</g>
</svg>
